<svg xmlns="http://www.w3.org/2000/svg" version="1.1" xmlns:xlink="http://www.w3.org/1999/xlink" width="2000" height="950" margin="0">
<!-- <script>setInterval(() => window.location.reload(), 5000);</script> -->
<svg xml:space="preserve" width="1500" height="1125" data-version="2" data-id="lg_WRKwXhDR4QBuI2ZIlo" viewBox="0 0 618 300" x="220">
<rect width="100%" height="100%" fill="#41907a"></rect>
<style>
    .slogan{
        fill-opacity: 0;
      animation: fillIn 1s forwards;
      animation-delay: 2.5s;
    }
    .letter {
      fill-opacity: 0;
      animation: fillIn 3s forwards;
    }
    .letter:nth-child(1) { animation-delay: 0s; }
    .letter:nth-child(2) { animation-delay: 0.3s; }
    .letter:nth-child(3) { animation-delay: 0.6s; }
    .letter:nth-child(4) { animation-delay: 0.9s; }
    .letter:nth-child(5) { animation-delay: 1.2s; }
    .letter:nth-child(6) { animation-delay: 1.5s; }
    .letter:nth-child(7) { animation-delay: 1.8s; }
    .letter:nth-child(8) { animation-delay: 2.1s; }
    
    @keyframes fillIn {
      from { fill-opacity: 0; }
      to { fill-opacity: 1; }
    }
</style>
<path fill="#fff" class="letter" d="M218.465 91.46q.34-.17.68-.17.69 0 1.26.68.57.69.57 1.49 0 .85-.57 1.6-.57.74-1.77 1.57-1.2.83-3.09 1.91-1.88 1.09-4.51 2.63-1.6.97-4.31 2.77-2.72 1.8-6.06 3.94-3.34 2.15-7.11 4.4-3.77 2.26-7.54 4.12-3.77 1.85-7.31 3.02-3.55 1.17-6.4 1.17-1.77 0-3.23-.51t-2.49-1.69q-1.02-1.17-1.6-3.02-.57-1.86-.57-4.55 0-3.59 1.2-8.14 1.2-4.54 3.06-9.37 1.86-4.82 4.14-9.71 2.29-4.88 4.51-9.17 2.23-4.28 4.12-7.71 1.88-3.43 2.91-5.37-3.65-.06-7.65-.31-4-.26-7.57-.77-3.57-.52-6.34-1.26-2.78-.74-4.03-1.77-5.37 6.51-12.03 13.39-6.65 6.89-14.22 13.37-7.57 6.49-15.91 12.29-8.34 5.79-17.06 10.11-8.71 4.31-17.65 6.85-8.94 2.55-17.68 2.55-3.37 0-6.46-.23-3.08-.23-5.94-.8-2.85-.57-5.48-1.6-2.63-1.03-5.09-2.63-.97-.63-2-1.31-1.02-.69-1.85-1.38-.83-.68-1.37-1.34-.55-.66-.6-1.23h1.2q.05 0 1.34.46 1.28.46 3.4 1.14 2.11.69 4.85 1.52 2.75.83 5.8 1.51 3.06.69 6.23 1.14 3.17.46 6.08.46 7.32 0 14.26-2.57 6.94-2.57 13.59-7 6.66-4.43 13.09-10.34 6.42-5.91 12.71-12.54 6.28-6.63 12.42-13.62 6.14-7 12.26-13.63 6.11-6.63 12.22-12.54 6.12-5.91 12.31-10.34 6.2-4.43 12.54-7 6.35-2.57 12.86-2.57 4.63 0 7.65 1.23 3.03 1.23 4.77 3.28 1.75 2.06 2.46 4.78.71 2.71.71 5.68 0 3.26-.62 6.68-.63 3.43-1.43 6.52-.8 3.08-1.54 5.57-.75 2.48-.98 3.85l-.05.46q9.82-1.71 17.22-4.6 7.4-2.88 12.37-6.48 4.97-3.6 7.45-7.69 2.49-4.08 2.49-8.2 0-4.74-3.37-9.22-3.37-4.49-10.2-7.94-6.82-3.46-17.14-5.54-10.31-2.09-24.19-2.09-6 0-13.51.66-7.51.65-16.06 1.74-8.54 1.09-17.88 2.46-9.34 1.37-19.05 2.82-9.71 1.46-19.54 2.83-9.82 1.37-19.34 2.46-9.51 1.08-18.48 1.74-8.97.66-16.96.66-6.4 0-11.8-.6t-9.51-1.97q-.63-.17-2.34-1.23-1.72-1.06-3.95-2.6-2.22-1.54-4.62-3.31t-4.4-3.37q-2-1.6-3.32-2.83-1.31-1.23-1.31-1.63 0-.17.29-.17.39 0 1.34.37.94.37 2.65 1.23 8.63 4.4 20.14 6.2 11.51 1.8 26.37 1.8 7.88 0 17.82-.8 9.94-.8 21.31-1.97 11.37-1.18 23.94-2.55 12.57-1.37 25.73-2.54 13.17-1.17 26.68-1.97t26.83-.8q13.48 0 23.19 2.23t16 5.97q6.28 3.74 9.25 8.57 2.97 4.82 2.97 10.02 0 3.83-1.51 7.66-1.52 3.83-4.46 7.34t-7.23 6.66q-4.28 3.14-9.79 5.51-5.52 2.37-12.17 3.91-6.66 1.54-14.37 1.94-.51 1.09-2.03 3.55-1.51 2.45-3.63 5.79-2.11 3.35-4.65 7.26-2.54 3.91-5.11 7.97-2.58 4.06-4.97 8-2.4 3.94-4.26 7.25-1.86 3.32-2.97 5.74-1.12 2.43-1.12 3.52 0 1.88.8 2.71.8.83 2.29.83 1.83 0 4.63-1.14 2.8-1.15 6.22-3.06 3.43-1.91 7.37-4.34 3.95-2.43 8.12-5.03 4.17-2.6 8.39-5.11 4.23-2.52 8.29-4.57m-31.77-34.22q1.66-3.49 3.69-7.4 2.03-3.91 3.8-7.77 1.77-3.86 2.97-7.43 1.2-3.57 1.2-6.31 0-2.57-.97-3.66-.97-1.08-2.63-1.08-2.06 0-4.94 1.43-2.89 1.43-6.12 3.82-3.22 2.4-6.54 5.49-3.31 3.08-6.25 6.4-2.94 3.31-5.29 6.6-2.34 3.28-3.54 6.08.69.91 3.14 1.63 2.46.71 5.94 1.2 3.49.48 7.57.74 4.09.26 7.97.26"></path>
<path fill="#fff" class="letter" d="M262.505 65.52q9.09-5.2 16.31-10.14 7.23-4.94 12.29-9.54 5.05-4.6 7.74-8.88 2.68-4.29 2.68-8.23 0-.97-.23-2.14-.22-1.17-1.2-2.17-.97-1-2.94-1.69-1.97-.68-5.4-.68-3.94 0-7.28 2.02-3.34 2.03-6.2 5.43-2.85 3.4-5.23 7.86-2.37 4.45-4.31 9.28-1.94 4.83-3.48 9.71-1.55 4.89-2.75 9.17m7.77 34.11 13.83-8.17q.74-.29 1.03-.29.68 0 1.11.46.43.46.43 1.2 0 .8-.57 1.68-.57.89-2 1.69l-14.68 9.31q-3.09 1.94-6.37 4.06-3.29 2.11-6.52 4.23-3.22 2.11-6.17 4.08-2.94 1.97-5.34 3.63-2.74 12.05-6.82 20.62-4.09 8.57-8.57 14.06-4.49 5.48-8.86 8.02-4.37 2.54-7.63 2.54-2.91 0-4.65-1.82-1.74-1.83-1.74-5.26 0-2.74 2.11-7.17t5.88-9.68q3.77-5.26 8.89-10.94 5.11-5.69 11.11-11 .68-3.6 1.94-8.28 1.26-4.69 2.86-10.06 1.6-5.37 3.43-11.2 1.82-5.82 3.65-11.71l-28.16 16.57q-.75.29-1.03.29-.74 0-1.26-.46-.51-.46-.51-1.2 0-.69.63-1.54.63-.86 2.17-1.83 4.17-2.46 8.4-4.94 4.22-2.49 8.14-4.8 3.91-2.32 7.28-4.29 3.37-1.97 5.77-3.4l.23-1.14q.17-1.08.54-2.94.37-1.86.94-4.26.58-2.4 1.23-4.91.66-2.51 1.43-5 .77-2.48 1.63-4.48 1.48-3.55 3.68-7.34 2.2-3.8 4.95-7.37 2.74-3.57 5.99-6.75 3.26-3.17 6.92-5.54 3.65-2.37 7.62-3.77t8.14-1.4q4.17 0 7.15.83 2.97.83 4.85 2.2 1.89 1.37 2.77 3.06.89 1.68.89 3.4 0 4.57-1.97 8.65-1.97 4.09-5.32 7.8-3.34 3.71-7.82 7.08-4.49 3.37-9.49 6.52-5 3.14-10.25 6.08-5.26 2.94-10.23 5.8-2.17 6.68-4.08 12.54-1.92 5.85-3.66 11.08-1.74 5.23-3.37 9.97-1.63 4.74-3.23 9.2 2.23-1.37 4.97-3.03 2.75-1.66 5.72-3.46 2.97-1.8 6.05-3.65 3.09-1.86 5.94-3.57m-57.64 57.58q.17 2.52 1.71 2.52 1.43 0 3.72-2.06 2.28-2.06 4.88-5.88 2.6-3.83 5.17-9.17t4.57-11.97q-2.23 2.11-4.6 4.6-2.37 2.48-4.6 5.05-2.22 2.57-4.19 5.09-1.98 2.51-3.46 4.77-1.49 2.25-2.34 4.08-.86 1.83-.86 2.97"></path>
<path fill="#fff" class="letter" d="M328.155 65.52q9.08-5.2 16.31-10.14 7.22-4.94 12.28-9.54 5.05-4.6 7.74-8.88 2.68-4.29 2.68-8.23 0-.97-.22-2.14-.23-1.17-1.2-2.17-.98-1-2.95-1.69-1.97-.68-5.39-.68-3.95 0-7.29 2.02-3.34 2.03-6.2 5.43-2.85 3.4-5.22 7.86-2.38 4.45-4.32 9.28-1.94 4.83-3.48 9.71-1.55 4.89-2.74 9.17m7.76 34.11 13.83-8.17q.74-.29 1.03-.29.68 0 1.11.46.43.46.43 1.2 0 .8-.57 1.68-.57.89-2 1.69l-14.68 9.31q-3.09 1.94-6.37 4.06-3.29 2.11-6.51 4.23-3.23 2.11-6.17 4.08-2.95 1.97-5.35 3.63-2.74 12.05-6.82 20.62-4.09 8.57-8.57 14.06-4.49 5.48-8.86 8.02-4.37 2.54-7.62 2.54-2.92 0-4.66-1.82-1.74-1.83-1.74-5.26 0-2.74 2.11-7.17t5.89-9.68q3.77-5.26 8.88-10.94 5.11-5.69 11.11-11 .69-3.6 1.94-8.28 1.26-4.69 2.86-10.06 1.6-5.37 3.43-11.2 1.83-5.82 3.65-11.71l-28.16 16.57q-.74.29-1.03.29-.74 0-1.26-.46-.51-.46-.51-1.2 0-.69.63-1.54.63-.86 2.17-1.83 4.17-2.46 8.4-4.94 4.22-2.49 8.14-4.8 3.91-2.32 7.28-4.29 3.37-1.97 5.77-3.4l.23-1.14q.17-1.08.54-2.94.37-1.86.95-4.26.57-2.4 1.22-4.91.66-2.51 1.43-5 .77-2.48 1.63-4.48 1.49-3.55 3.68-7.34 2.2-3.8 4.95-7.37 2.74-3.57 5.99-6.75 3.26-3.17 6.92-5.54 3.65-2.37 7.62-3.77t8.15-1.4q4.17 0 7.14.83 2.97.83 4.85 2.2 1.89 1.37 2.77 3.06.89 1.68.89 3.4 0 4.57-1.97 8.65-1.97 4.09-5.32 7.8-3.34 3.71-7.82 7.08-4.49 3.37-9.49 6.52-4.99 3.14-10.25 6.08t-10.23 5.8q-2.17 6.68-4.08 12.54-1.91 5.85-3.66 11.08-1.74 5.23-3.37 9.97-1.63 4.74-3.23 9.2 2.23-1.37 4.97-3.03 2.75-1.66 5.72-3.46 2.97-1.8 6.05-3.65 3.09-1.86 5.94-3.57m-57.64 57.58q.17 2.52 1.72 2.52 1.42 0 3.71-2.06 2.28-2.06 4.88-5.88 2.6-3.83 5.17-9.17t4.57-11.97q-2.22 2.11-4.6 4.6-2.37 2.48-4.59 5.05-2.23 2.57-4.2 5.09-1.97 2.51-3.46 4.77-1.48 2.25-2.34 4.08-.86 1.83-.86 2.97"></path>
<path fill="#fff" class="letter" d="M448.405 96.2q-3.2 1.89-6.2 3.68-3 1.8-6.02 3.8-3.03 2-6.2 4.29-3.17 2.28-6.66 5.14-2.85 7.43-6.2 15.37-3.34 7.94-7.02 15.51-3.69 7.57-7.69 14.34t-8.2 11.85q-4.19 5.09-8.51 8.09-4.31 2.99-8.6 2.99-2.17 0-3.71-.51t-2.57-1.37q-1.03-.86-1.51-1.91-.49-1.06-.49-2.15 0-1.65.97-4.82.97-3.17 3.14-7.46 2.17-4.28 5.63-9.6 3.46-5.31 8.37-11.34 4.91-6.02 11.4-12.59 6.48-6.57 14.77-13.43 3.31-7.71 5.65-12.97 2.34-5.25 3.91-8.74 1.58-3.48 2.49-5.57.91-2.08 1.43-3.45-2.4 3.08-5.71 6.68-3.32 3.6-7.29 7.2t-8.45 6.91q-4.49 3.31-9.23 5.86-4.74 2.54-9.63 4.08-4.88 1.54-9.62 1.54-2.74 0-3.77-1.45-1.03-1.46-1.03-3.92 0-2.22.77-5.28t1.97-6.51q1.2-3.46 2.71-7.09 1.52-3.63 3-7 1.49-3.37 2.77-6.22 1.29-2.86 2.09-4.8-2.57 1.65-6.48 3.97-3.92 2.31-8.6 5.03-4.69 2.71-9.91 5.74-5.23 3.02-10.43 6.11-.8.46-1.43.46-.68 0-1.11-.43-.43-.43-.43-1.12 0-.8.66-1.74.65-.94 2.31-1.91 7.48-4.4 13.11-7.74 5.63-3.34 9.8-5.8 4.17-2.46 7.08-4.11 2.92-1.66 4.97-2.63 2.06-.97 3.43-1.4 1.37-.43 2.51-.43 1.72 0 2.8.71 1.09.72 1.75 1.83.65 1.12.88 2.4.23 1.29.23 2.49 0 2.45-1.23 5.68-1.23 3.23-3.05 6.71-1.83 3.49-3.95 7.03-2.11 3.54-3.94 6.68-1.83 3.15-3.06 5.6-1.22 2.46-1.22 3.77 0 1.32 1.31 1.32 2.06 0 5.34-1.4 3.29-1.4 7.29-3.83t8.45-5.71q4.46-3.29 8.86-7.06 4.4-3.77 8.48-7.83 4.08-4.05 7.4-8.11.23-.34.31-1.23.09-.88.46-1.82.37-.95 1.2-1.66t2.54-.71q1.43 0 2.29.34.85.34 1.28.94.43.6.54 1.43.12.83.12 1.86 0-.12-.06-.12-.11 0-.86 2.09-.74 2.08-1.97 5.77-1.22 3.68-2.97 8.71-1.74 5.03-3.91 10.91 5.2-3.77 10.71-7.4 5.51-3.63 11.74-7.28.34-.17.69-.17.63 0 1.17.51.54.52.54 1.31 0 .69-.54 1.49t-1.86 1.6m-51.24 41.3q-1.95 2.06-4.06 5.26-2.11 3.2-4.17 6.88-2.06 3.69-3.94 7.55-1.89 3.85-3.29 7.22-1.4 3.37-2.22 5.97-.83 2.6-.83 3.74 0 1.32 1.25 1.32 1.49 0 3.17-1.4 1.69-1.4 3.49-3.77 1.8-2.37 3.68-5.49 1.89-3.11 3.77-6.6 1.89-3.48 3.75-7.11 1.85-3.63 3.57-6.94 2.17-5.2 4.02-9.71 1.86-4.51 3.58-8.51-5.37 5.02-11.77 11.59"></path>
<path fill="#fff" class="letter" d="M500.675 109.51q-.57.12-1.05.14-.49.03-.95.09-3.77 3.08-8.91 4.8-5.14 1.71-11.54 1.71-3.94 0-6.65-.68-2.72-.69-4.37-2-1.66-1.32-2.4-3.23-.75-1.91-.75-4.43 0-4.85 1.49-10.45t4.06-11.66l-21.2 12.4q-.46.29-.97.29-.57 0-.89-.46-.31-.46-.31-1.14 0-.8.51-1.78.52-.97 1.66-1.65l24.28-14.34q2.91-5.77 6.46-11.43 3.54-5.65 7.37-10.77 3.82-5.11 7.79-9.51 3.97-4.4 7.72-7.6 3.74-3.2 7.08-5.02 3.34-1.83 5.97-1.83 4.46 0 6.46 1.48 2 1.49 2 4.06 0 2.29-1.43 5.23-1.43 2.94-4.03 6.28-2.6 3.34-6.17 6.91-3.57 3.57-7.83 7.03-4.25 3.46-9.08 6.71-4.83 3.26-9.85 5.95 1.08-.29 2.11-.38 1.03-.08 2.06-.08 3.82 0 7.28 1.4 3.46 1.4 6.06 3.6 2.59 2.2 4.14 4.82 1.54 2.63 1.54 5.09 0 4.28-1.14 8.17-1.15 3.88-3.54 7.2l21.93-12.97q.57-.17 1.09-.17 1.37 0 1.37 1.37 0 2.11-2.46 3.54-1.25.74-3.28 1.97t-4.43 2.66q-2.4 1.43-4.97 2.88-2.57 1.46-4.91 2.69-2.35 1.23-4.29 2.08-1.94.86-3.03 1.03m-.91-14.8q0-3.19-1.8-5.62t-4.71-4.29q-2.92-1.85-6.57-3.23-3.66-1.37-7.43-2.51-2.91 6.74-4.6 13.2-1.68 6.45-1.68 12.51 0 2.91 1.28 4.74 1.29 1.83 4.09 1.83 5.2 0 8.77-.89 3.57-.88 6.02-2.42-1.48-1.26-2.17-3-.68-1.75-.68-3.4 0-1.89 1.25-2.83 1.26-.94 3.03-.94 1.14 0 2.37.43 1.23.42 2.26 1.22.57-2.05.57-4.8m15.82-60.38q-1.71 0-4.05 1.34t-5.06 3.77q-2.71 2.43-5.62 5.74-2.92 3.32-5.75 7.29-2.82 3.97-5.45 8.4-2.63 4.42-4.74 9.05 2.34-1.37 5.77-3.83 3.42-2.45 7.25-5.51 3.83-3.06 7.63-6.46 3.8-3.39 6.85-6.59 3.06-3.2 4.95-5.95 1.88-2.74 1.88-4.57 0-1.25-.86-1.97-.85-.71-2.8-.71"></path>
<path fill="#fff" class="letter" d="M579.235 68.49q3.25 0 5.8 1.32 2.54 1.31 4.28 3.57 1.74 2.25 2.66 5.28.91 3.03.91 6.46 0 2-.46 4.4-.45 2.4-1.31 4.94-.86 2.54-2.09 5.05-1.22 2.52-2.71 4.63 1.09-.57 2.63-1.43 1.54-.85 3.28-1.85l3.66-2.09q1.91-1.08 3.74-2.11l8.86-5.2q.4-.23 1.08-.23 1.32 0 1.32 1.37 0 1.89-2.4 3.6-2.06 1.37-5.37 3.43-3.32 2.05-7.17 4.03-3.86 1.97-7.83 3.48t-7.4 1.74q-4.45 3.32-10.45 5.34-6 2.03-14 2.03-3.94 0-6.65-.68-2.72-.69-4.38-2-1.65-1.32-2.39-3.23-.75-1.91-.75-4.43 0-3.65 1.49-7.82 1.48-4.18 3.68-8.15 2.2-3.97 4.72-7.39 2.51-3.43 4.57-5.66-1.83 1.6-5.17 3.83-3.35 2.23-7.54 4.77-4.2 2.54-8.92 5.28-4.71 2.74-9.34 5.43-.68.29-1.25.29-.75 0-1.15-.43-.4-.43-.4-1.12 0-.8.66-1.68.66-.89 2.14-1.8 8.69-5.09 14.8-8.77 6.11-3.69 10.57-6.26 4.45-2.57 7.77-4.11 3.31-1.54 6.37-2.4 3.05-.86 6.37-1.14 3.31-.29 7.77-.29m-22.86 42.85q3.6 0 7.03-1.49 3.43-1.48 6.69-4.05-.75-.86-1.03-1.94-.29-1.09-.29-2.23 0-2 1.32-3 1.31-1 3.14-1 1.94 0 3.77 1.14 1.83-1.31 3.48-3.14 1.66-1.83 2.89-3.89 1.23-2.05 1.94-4.22t.71-4.23q0-1.77-.65-3.4-.66-1.63-2.12-2.83-1.45-1.2-3.82-1.91-2.37-.72-5.74-.72-2.8 0-5.58 1.49-2.77 1.48-5.31 3.97-2.54 2.48-4.74 5.66-2.2 3.17-3.8 6.54-1.6 3.37-2.51 6.62-.92 3.26-.92 5.95 0 2.97 1.32 4.82 1.31 1.86 4.22 1.86"></path>
<path fill="#dbf7d2" class="slogan" d="M203.195 257.83q-2.85 0-4.22-.92-1.36-.91-1.36-3.43 0-.51.07-1.23.08-.72.23-1.74.24-1.47.36-2.63.12-1.15.12-2.53 0-.9-.05-1.74-.04-.84-.16-1.59-.45.09-.6.09-.24 0-.33-.11-.09-.1-.09-.4 0-.63.15-1.25.15-.61.42-1 .51-.72 1.56-.84.81-.09 1.99-.18 1.19-.09 2.43-.14 1.25-.04 2.24-.04 2.76 0 3.27.12.78.12.78.84 0 .9-.63 1.65-.33.45-.66.64-.33.2-.93.17-1.32-.09-2.31-.12t-1.38-.03q-.69 0-1.43.03-.73.03-1.48.09 0 1.05-.09 2.25t-.24 2.52q1.38-.09 3.12-.14 1.74-.04 3.09-.04.6 0 .82.12.23.12.23.63 0 .48-.26 1.06-.25.59-.67 1.01-.18.18-.39.28-.21.11-.57.08-1.29-.06-2.93-.09-1.63-.03-2.86 0-.12.69-.18 1.26-.06.57-.06 1.02 0 1.65.84 2.31.84.66 2.76.66 1.17 0 2.26-.21 1.1-.21 2.24-.78.42-.24.63-.24.33 0 .64.46.32.47.32 1.01 0 .66-.5 1.24-.49.59-1.3 1.01-.93.42-2.22.64-1.29.23-2.67.23m11.19-.09q-.87 0-1.29-.48-.42-.48-.42-1.68 0-.57.09-1.47t.21-1.95q.18-1.29.31-2.7.14-1.41.14-2.7 0-1.83-.17-3.8-.16-1.96-.91-3.43-.27-.6-.27-.87 0-.39.34-.75.35-.36.86-.62.51-.25.99-.25.78 0 1.17.7.39.71.51 1.92.12 1.22.12 2.78 0 2.37-.2 4.11-.19 1.74-.37 3.06-.12.87-.23 1.65-.1.78-.1 1.41 0 1.05.34 1.51.35.47 1.13.92.21.12.31.22.11.11.11.32 0 .24-.24.75t-.83.93q-.58.42-1.6.42m9.33.09q-2.28 0-3.56-1.31-1.27-1.3-1.27-3.64 0-2.13.93-3.87.93-1.74 2.5-2.78 1.58-1.03 3.47-1.03 1.8 0 2.88.88 1.08.89 1.08 2.36 0 1.17-.72 2.16-.72.99-1.92 1.57-1.2.59-2.67.59-1.8 0-2.94-.81.03 1.38.94 2.22.92.84 2.36.84.87 0 1.78-.32.92-.31 1.58-.85.42-.36.78-.36.3 0 .49.19.2.2.2.5 0 .66-1.14 1.74-2.01 1.92-4.77 1.92m.45-7.05q1.08 0 1.8-.45t.72-1.14q0-.57-.48-.89-.48-.31-1.32-.31-1.11 0-1.94.58-.82.59-1.18 1.64.42.27 1.08.42.66.15 1.32.15m12.12 7.08q-.81 0-1.4-.5-.58-.49-.7-1.84-.06-1.02-.26-2.25-.19-1.23-.49-2.34-.3-1.11-.69-1.74-.21-.33-.47-.5-.25-.16-.76-.22-.33-.03-.45-.21t-.12-.57q0-1.23.67-1.82.68-.58 1.55-.58.9 0 1.5.58.6.59.93 1.55.33.96.46 2.11.14 1.16.14 2.33 0 .48-.02 1-.01.53-.01.89 0 .33.13.51.14.18.53.18.48 0 1.11-.29.63-.28 1.24-.82.62-.54 1.02-1.28.41-.73.41-1.63 0-.51-.17-1.08-.16-.57-.52-.96t-.53-.62q-.16-.22-.16-.52 0-.54.49-.99.5-.45 1.17-.72.68-.27 1.19-.27.87 0 1.11.72.24.72.24 1.59 0 1.65-.6 3.45-.6 1.8-1.62 3.36-1.02 1.56-2.3 2.52-1.27.96-2.62.96m12.9-.03q-1.8 0-2.9-1.13-1.09-1.12-1.09-3.22 0-1.5.58-2.99.59-1.48 1.7-2.68 1.11-1.2 2.67-1.92 1.56-.72 3.51-.72 1.8 0 3.07.61 1.28.62 1.28 1.67 0 .27-.06.7-.06.44-.15.71-.09.24-.26.43-.16.2-.43.2-.12 0-.45-.09-.12.63-.18 1.23t-.06 1.2q0 1.14.34 2.02.35.89 1.37 1.1.27.06.43.18.17.12.17.51 0 .33-.17.84-.16.51-.63.91-.46.41-1.33.41-1.17 0-1.8-.86-.63-.85-.63-2.44-.81 1.47-2.06 2.4-1.24.93-2.92.93m.96-3.12q1.2 0 2.11-.75.92-.75 1.43-1.89.33-.72.51-1.58.18-.85.24-1.69-.51-.24-1.17-.39-.66-.15-1.38-.15-1.83 0-3.02 1.08-1.18 1.08-1.18 2.7 0 1.2.66 1.93.66.74 1.8.74m14.82 3.12q-1.83 0-2.63-1.22-.79-1.21-.79-3.13 0-.69.07-1.35.08-.66.17-1.32.09-.66.18-1.29t.15-1.2q-.63.18-1.26.18-.66 0-.66-.54 0-.57.51-1.4.51-.82 1.27-1.63.77-.81 1.53-1.37.77-.55 1.31-.55.66 0 .66 1.14 0 .3-.05.61-.04.32-.1.65.57-.12 1.15-.21.59-.09 1.13-.09.69 0 1.06.24.38.24.38.93 0 .72-.35 1.44-.34.72-.76.72-.09 0-.3-.03t-.51-.09q-.39-.09-.99-.18t-1.44-.09q-.21.93-.38 1.9-.16.98-.16 1.76 0 1.74.87 2.37.87.63 2.52.63.51 0 .72.16.21.17.21.59 0 .99-1.02 1.68t-2.49.69m10.38 0q-2.28 0-3.56-1.31-1.27-1.3-1.27-3.64 0-2.13.93-3.87.93-1.74 2.5-2.78 1.58-1.03 3.47-1.03 1.8 0 2.88.88 1.08.89 1.08 2.36 0 1.17-.72 2.16-.72.99-1.92 1.57-1.2.59-2.67.59-1.8 0-2.94-.81.03 1.38.94 2.22.92.84 2.36.84.87 0 1.78-.32.92-.31 1.58-.85.42-.36.78-.36.3 0 .49.19.2.2.2.5 0 .66-1.14 1.74-2.01 1.92-4.77 1.92m.45-7.05q1.08 0 1.8-.45t.72-1.14q0-.57-.48-.89-.48-.31-1.32-.31-1.11 0-1.94.58-.82.59-1.18 1.64.42.27 1.08.42.66.15 1.32.15m17.43 14.94q-1.23 0-2.12-.66-.88-.66-.88-1.77 0-.87.52-1.49.53-.61 1.31-.61.36 0 .51.12.15.12.24.27.24.39.55.67.32.29.86.29.72 0 1.39-.51.68-.51 1.25-1.17.51-.57 1.23-1.64.72-1.06 1.44-2.41-.66.57-1.23.82-.57.26-1.08.26-.63 0-1.23-.47-.6-.46-.75-1.75-.09-.99-.35-2.19-.25-1.2-.63-2.33-.37-1.12-.91-1.9-.21-.36-.48-.54-.27-.18-.78-.24-.36-.03-.47-.21-.1-.18-.1-.57 0-1.08.6-1.74.6-.66 1.62-.66 1.23 0 1.77.94.54.95.93 2.3.15.54.31 1.42.17.89.3 1.91.14 1.02.2 1.95.03.66.75.66.96 0 1.83-.6.87-.6 1.42-1.56.56-.96.56-2.01 0-.6-.15-1.08-.15-.48-.51-.84-.3-.36-.48-.59-.18-.22-.18-.52 0-.51.48-.96.48-.45 1.15-.75.68-.3 1.19-.3.9 0 1.2.85.3.86.15 1.88-.18 1.41-.72 3.33-.54 1.92-1.4 4.02-.85 2.1-1.95 4.06-1.09 1.97-2.32 3.44-1.05 1.29-2.34 2.08-1.29.8-2.7.8m18.39-7.89q-2.07 0-3.32-1.13-1.24-1.12-1.24-3.31 0-1.02.28-1.98.29-.96.77-1.8-.48.3-.72.3-.36 0-.5-.41-.13-.4-.13-.79 0-.69.28-1.1.29-.4.56-.61.63-.54 1.98-1.19 1.35-.64 3.24-.64 2.58 0 4 1.44 1.43 1.44 1.43 4.02 0 2.01-.84 3.64-.84 1.64-2.33 2.6-1.48.96-3.46.96m.93-3.06q1.5 0 2.53-.95 1.04-.94 1.04-2.5 0-1.62-1.05-2.31t-2.43-.69q-.63 0-1.14.12-.51.12-.96.3-.42.6-.75 1.35-.33.75-.33 1.65 0 1.5.9 2.26.9.77 2.19.77m11.76 3.06q-1.5 0-2.33-.87-.82-.87-.82-2.52 0-1.17.33-2.4.15-.51.24-1.02t.09-1.02q0-1.32-.81-1.71-.78-.42-.78-.9 0-.48.4-.96.41-.48 1.01-.8.6-.31 1.2-.31 1.71 0 1.71 2.79 0 .9-.14 1.66-.13.77-.31 1.46-.12.48-.2.96-.07.48-.07.84 0 1.5 1.47 1.5 1.38 0 2.58-1.47 1.2-1.47 1.98-4.11l-.03-.57q-.06-1.5.52-2.28.59-.78 1.73-.78.99 0 .99.63 0 .21-.08.54-.07.33-.22.78-.3 1.11-.51 2.35-.21 1.25-.21 2.3 0 1.17.36 1.93.36.77 1.35 1.04.27.03.43.16.17.14.17.56 0 .72-.6 1.41t-1.74.69q-2.19 0-2.19-3.09 0-.54.09-1.62l-.06-.03q-1.89 4.86-5.55 4.86m13.56-.06q-.48 0-.77-.17-.28-.16-.19-.55.33-1.29.55-2.63.23-1.33.23-2.56 0-1.59-.2-2.33-.19-.73-.52-1.02-.33-.28-.81-.43-.21-.09-.38-.24-.16-.15-.16-.42 0-.42.33-.93t.93-.89q.6-.37 1.38-.37 1.02 0 1.42.7.41.71.41 1.85.54-1.2 1.33-1.91.8-.7 2-.7.81 0 1.35.36t.54 1.17q0 .81-.53 1.51-.52.71-1.06.71-.09 0-.21-.03t-.21-.15q-.39-.48-.96-.48-.87 0-1.53 1.14t-.72 3.15q.03.75.04 1.53.02.78.02 1.14 0 1.11-.62 1.83-.61.72-1.66.72m23.55.06q-2.85 0-4.22-.92-1.36-.91-1.36-3.43 0-.51.07-1.23.08-.72.23-1.74.24-1.47.36-2.63.12-1.15.12-2.53 0-.9-.05-1.74-.04-.84-.16-1.59-.45.09-.6.09-.24 0-.33-.11-.09-.1-.09-.4 0-.63.15-1.25.15-.61.42-1 .51-.72 1.56-.84.81-.09 1.99-.18 1.19-.09 2.43-.14 1.25-.04 2.24-.04 2.76 0 3.27.12.78.12.78.84 0 .9-.63 1.65-.33.45-.66.64-.33.2-.93.17-1.32-.09-2.31-.12t-1.38-.03q-.69 0-1.43.03-.73.03-1.48.09 0 1.05-.09 2.25t-.24 2.52q1.38-.09 3.12-.14 1.74-.04 3.09-.04.6 0 .82.12.23.12.23.63 0 .48-.26 1.06-.25.59-.67 1.01-.18.18-.39.28-.21.11-.57.08-1.29-.06-2.93-.09-1.63-.03-2.86 0-.12.69-.18 1.26-.06.57-.06 1.02 0 1.65.84 2.31.84.66 2.76.66 1.17 0 2.26-.21 1.1-.21 2.24-.78.42-.24.63-.24.33 0 .64.46.32.47.32 1.01 0 .66-.5 1.24-.49.59-1.3 1.01-.93.42-2.22.64-1.29.23-2.67.23m13.2.03q-.81 0-1.4-.5-.58-.49-.7-1.84-.06-1.02-.26-2.25-.19-1.23-.49-2.34-.3-1.11-.69-1.74-.21-.33-.47-.5-.25-.16-.76-.22-.33-.03-.45-.21t-.12-.57q0-1.23.67-1.82.68-.58 1.55-.58.9 0 1.5.58.6.59.93 1.55.33.96.46 2.11.14 1.16.14 2.33 0 .48-.02 1-.01.53-.01.89 0 .33.13.51.14.18.53.18.48 0 1.11-.29.63-.28 1.24-.82.62-.54 1.02-1.28.41-.73.41-1.63 0-.51-.17-1.08-.16-.57-.52-.96t-.53-.62q-.16-.22-.16-.52 0-.54.49-.99.5-.45 1.17-.72.68-.27 1.19-.27.87 0 1.11.72.24.72.24 1.59 0 1.65-.6 3.45-.6 1.8-1.62 3.36-1.02 1.56-2.3 2.52-1.27.96-2.62.96m13.89-.03q-2.28 0-3.56-1.31-1.27-1.3-1.27-3.64 0-2.13.93-3.87.93-1.74 2.5-2.78 1.58-1.03 3.47-1.03 1.8 0 2.88.88 1.08.89 1.08 2.36 0 1.17-.72 2.16-.72.99-1.92 1.57-1.2.59-2.67.59-1.8 0-2.94-.81.03 1.38.94 2.22.92.84 2.36.84.87 0 1.78-.32.92-.31 1.58-.85.42-.36.78-.36.3 0 .49.19.2.2.2.5 0 .66-1.14 1.74-2.01 1.92-4.77 1.92m.45-7.05q1.08 0 1.8-.45t.72-1.14q0-.57-.48-.89-.48-.31-1.32-.31-1.11 0-1.94.58-.82.59-1.18 1.64.42.27 1.08.42.66.15 1.32.15m9.69 6.99q-.48 0-.77-.17-.28-.16-.19-.55.33-1.29.55-2.63.23-1.33.23-2.56 0-1.59-.2-2.33-.19-.73-.52-1.02-.33-.28-.81-.43-.21-.09-.38-.24-.16-.15-.16-.42 0-.42.33-.93t.93-.89q.6-.37 1.38-.37 1.02 0 1.42.7.41.71.41 1.85.54-1.2 1.33-1.91.8-.7 2-.7.81 0 1.35.36t.54 1.17q0 .81-.53 1.51-.52.71-1.06.71-.09 0-.21-.03t-.21-.15q-.39-.48-.96-.48-.87 0-1.53 1.14t-.72 3.15q.03.75.04 1.53.02.78.02 1.14 0 1.11-.62 1.83-.61.72-1.66.72m9.51 7.95q-1.23 0-2.12-.66-.88-.66-.88-1.77 0-.87.52-1.49.53-.61 1.31-.61.36 0 .51.12.15.12.24.27.24.39.55.67.32.29.86.29.72 0 1.39-.51.68-.51 1.25-1.17.51-.57 1.23-1.64.72-1.06 1.44-2.41-.66.57-1.23.82-.57.26-1.08.26-.63 0-1.23-.47-.6-.46-.75-1.75-.09-.99-.35-2.19-.25-1.2-.63-2.33-.37-1.12-.91-1.9-.21-.36-.48-.54-.27-.18-.78-.24-.36-.03-.47-.21-.1-.18-.1-.57 0-1.08.6-1.74.6-.66 1.62-.66 1.23 0 1.77.94.54.95.93 2.3.15.54.31 1.42.17.89.3 1.91.14 1.02.2 1.95.03.66.75.66.96 0 1.83-.6.87-.6 1.42-1.56.56-.96.56-2.01 0-.6-.15-1.08-.15-.48-.51-.84-.3-.36-.48-.59-.18-.22-.18-.52 0-.51.48-.96.48-.45 1.15-.75.68-.3 1.19-.3.9 0 1.2.85.3.86.15 1.88-.18 1.41-.72 3.33-.54 1.92-1.4 4.02-.85 2.1-1.95 4.06-1.09 1.97-2.32 3.44-1.05 1.29-2.34 2.08-1.29.8-2.7.8m17.4-7.89q-1.8 0-2.84-1.2-1.03-1.2-1.03-3.27 0-1.53.49-3 .5-1.47 1.4-2.64.9-1.17 2.1-1.86 1.2-.69 2.61-.69.9 0 1.6.27.71.27 1.25.69-.03-2.04-.21-3.66t-.87-3q-.12-.24-.2-.44-.07-.19-.07-.37 0-.42.34-.78.35-.36.86-.6t.96-.24q.81 0 1.21.7.41.71.53 1.92.12 1.22.12 2.78 0 2.28-.21 4.11-.21 1.83-.39 3.21-.12.9-.21 1.56t-.09 1.08q0 2.13 1.83 2.52.48.09.48.63 0 .33-.2.84-.19.51-.7.91-.51.41-1.47.41-1.29 0-1.74-.87-.45-.87-.45-2.64-.84 1.53-2.13 2.58t-2.97 1.05m.93-3.21q.84 0 1.68-.54t1.5-1.47q.39-.57.7-1.31.32-.73.59-1.48-1.53-1.38-3.39-1.38-1.62 0-2.58.97-.96.98-.96 2.42 0 1.23.72 2.01.72.78 1.74.78m14.4 3.21q-1.8 0-2.9-1.13-1.09-1.12-1.09-3.22 0-1.5.58-2.99.59-1.48 1.7-2.68 1.11-1.2 2.67-1.92 1.56-.72 3.51-.72 1.8 0 3.07.61 1.28.62 1.28 1.67 0 .27-.06.7-.06.44-.15.71-.09.24-.26.43-.16.2-.43.2-.12 0-.45-.09-.12.63-.18 1.23t-.06 1.2q0 1.14.34 2.02.35.89 1.37 1.1.27.06.43.18.17.12.17.51 0 .33-.17.84-.16.51-.63.91-.46.41-1.33.41-1.17 0-1.8-.86-.63-.85-.63-2.44-.81 1.47-2.06 2.4-1.24.93-2.92.93m.96-3.12q1.2 0 2.11-.75.92-.75 1.43-1.89.33-.72.51-1.58.18-.85.24-1.69-.51-.24-1.17-.39-.66-.15-1.38-.15-1.83 0-3.02 1.08-1.18 1.08-1.18 2.7 0 1.2.66 1.93.66.74 1.8.74m11.28 11.01q-1.23 0-2.12-.66-.88-.66-.88-1.77 0-.87.52-1.49.53-.61 1.31-.61.36 0 .51.12.15.12.24.27.24.39.55.67.32.29.86.29.72 0 1.39-.51.68-.51 1.25-1.17.51-.57 1.23-1.64.72-1.06 1.44-2.41-.66.57-1.23.82-.57.26-1.08.26-.63 0-1.23-.47-.6-.46-.75-1.75-.09-.99-.35-2.19-.25-1.2-.63-2.33-.37-1.12-.91-1.9-.21-.36-.48-.54-.27-.18-.78-.24-.36-.03-.47-.21-.1-.18-.1-.57 0-1.08.6-1.74.6-.66 1.62-.66 1.23 0 1.77.94.54.95.93 2.3.15.54.31 1.42.17.89.3 1.91.14 1.02.2 1.95.03.66.75.66.96 0 1.83-.6.87-.6 1.42-1.56.56-.96.56-2.01 0-.6-.15-1.08-.15-.48-.51-.84-.3-.36-.48-.59-.18-.22-.18-.52 0-.51.48-.96.48-.45 1.15-.75.68-.3 1.19-.3.9 0 1.2.85.3.86.15 1.88-.18 1.41-.72 3.33-.54 1.92-1.4 4.02-.85 2.1-1.95 4.06-1.09 1.97-2.32 3.44-1.05 1.29-2.34 2.08-1.29.8-2.7.8"></path></svg></svg>